<svg xmlns="http://www.w3.org/2000/svg" width="720" height="240" viewBox="0 0 720 240">
  <g fill="none" stroke="#72928e" stroke-opacity="0.11" stroke-width="1">
    <path d="M392 18c38-16 92-11 125 7 29 16 36 38 73 49 36 11 82 6 118 28"/>
    <path d="M371 31c45-21 107-19 147 1 35 18 41 43 82 55 41 12 82 7 120 28"/>
    <path d="M355 49c54-26 120-25 168-2 39 19 47 46 91 60 42 14 72 11 106 26"/>
    <path d="M347 69c50-24 111-25 158-7 39 15 56 42 92 55 42 15 79 13 123 31"/>
    <path d="M344 91c48-22 103-22 147-8 44 15 59 39 97 55 44 19 88 19 132 37"/>
    <path d="M356 112c38-17 82-19 119-11 50 11 70 37 109 55 42 20 86 24 136 42"/>
    <path d="M375 133c30-12 63-13 95-9 51 7 73 31 111 51 38 20 82 32 139 48"/>
    <path d="M403 153c24-7 47-7 72-4 44 6 70 26 105 46 34 20 78 35 140 47"/>
    <path d="M460 24c-14 14-11 31 5 43 17 12 43 11 59 24 16 13 13 31-4 42-18 12-44 12-60 25-15 12-12 29 4 40"/>
    <path d="M489 18c-16 16-13 34 6 48 18 13 47 12 64 27 16 14 13 34-5 46-19 13-49 12-66 27-16 14-12 31 6 43"/>
    <path d="M520 18c-15 14-13 31 4 44 21 16 55 14 75 31 18 15 14 36-7 49-22 14-54 14-73 31-16 14-12 31 6 43"/>
    <path d="M555 21c-12 12-11 26 3 37 25 19 66 17 88 37 18 16 13 38-10 52-24 15-61 15-80 34-12 12-9 26 5 36"/>
  </g>
</svg>
